<svg xmlns="http://www.w3.org/2000/svg" viewBox="0 0 32 32" fill="none">
  <rect width="32" height="32" rx="6" fill="#0f172a"/>
  <path d="M8 20c0-2 1.5-4 4-4s4 2 4 4v4H8v-4z" fill="#94a3b8"/>
  <path d="M16 16c0-2 1.5-4 4-4s4 2 4 4v4h-8v-4z" fill="#94a3b8"/>
  <path d="M12 12c0-1.5 1-3 2.5-3s2.5 1.5 2.5 3v4h-5v-4z" fill="#cbd5e1"/>
  <path d="M18 10c0-1.5 1-3 2.5-3s2.5 1.5 2.5 3v6h-5V10z" fill="#cbd5e1"/>
  <path d="M10 8c0-1 .8-2 1.8-2s1.8 1 1.8 2v2h-3.6V8z" fill="#e2e8f0"/>
  <path d="M16 6c0-1 .8-2 1.8-2s1.8 1 1.8 2v4h-3.6V6z" fill="#e2e8f0"/>
</svg>
